<mxfile host="app.diagrams.net" modified="2022-10-03T01:01:45.188Z" agent="5.0 (Macintosh; Intel Mac OS X 10_15_7) AppleWebKit/537.36 (KHTML, like Gecko) Chrome/104.0.0.0 Safari/537.36" etag="btYt2G52eFRqYCVYaOLs" version="20.4.0" type="github">
  <diagram id="2TeomFjYdXQAgOrrBrtC" name="PÃ¡gina-1">
    <mxGraphModel dx="1298" dy="809" grid="1" gridSize="10" guides="1" tooltips="1" connect="1" arrows="1" fold="1" page="1" pageScale="1" pageWidth="827" pageHeight="1169" math="0" shadow="0">
      <root>
        <mxCell id="0" />
        <mxCell id="1" parent="0" />
        <mxCell id="QdTvfzB03OFcKbd1xgL--1" value="" style="rounded=0;whiteSpace=wrap;html=1;" vertex="1" parent="1">
          <mxGeometry x="40" y="20" width="720" height="60" as="geometry" />
        </mxCell>
        <mxCell id="QdTvfzB03OFcKbd1xgL--2" value="Title" style="text;strokeColor=none;fillColor=none;html=1;fontSize=24;fontStyle=1;verticalAlign=middle;align=center;" vertex="1" parent="1">
          <mxGeometry x="70" y="20" width="150" height="30" as="geometry" />
        </mxCell>
        <mxCell id="QdTvfzB03OFcKbd1xgL--3" value="" style="rounded=0;whiteSpace=wrap;html=1;strokeColor=#9933FF;shadow=1;" vertex="1" parent="1">
          <mxGeometry x="70" y="35" width="50" height="30" as="geometry" />
        </mxCell>
        <mxCell id="QdTvfzB03OFcKbd1xgL--4" value="" style="rounded=0;whiteSpace=wrap;html=1;shadow=1;strokeColor=#9933FF;" vertex="1" parent="1">
          <mxGeometry x="130" y="50" width="390" height="40" as="geometry" />
        </mxCell>
      </root>
    </mxGraphModel>
  </diagram>
</mxfile>
